<svg width="24" height="24" viewBox="0 0 24 24" fill="none" xmlns="http://www.w3.org/2000/svg">
  <g clip-path="url(#clip0_102_1818)">
    <path d="M23.9999 6.83002C24.0007 6.96162 23.9754 7.09209 23.9257 7.21392C23.8759 7.33576 23.8026 7.44658 23.7099 7.54002L15.5399 15.71C15.0755 16.1756 14.5237 16.5451 13.9163 16.7971C13.3088 17.0492 12.6576 17.179 11.9999 17.179C11.3423 17.179 10.691 17.0492 10.0836 16.7971C9.47614 16.5451 8.92439 16.1756 8.45993 15.71L0.28994 7.54002C0.196702 7.44678 0.122741 7.33609 0.072281 7.21427C0.0218207 7.09244 -0.00415084 6.96188 -0.00415084 6.83002C-0.00415085 6.69816 0.0218207 6.56759 0.072281 6.44577C0.122741 6.32395 0.196702 6.21326 0.28994 6.12002C0.383179 6.02678 0.493869 5.95282 0.615691 5.90236C0.737513 5.8519 0.86808 5.82593 0.99994 5.82593C1.1318 5.82593 1.26237 5.8519 1.38419 5.90236C1.50601 5.95282 1.6167 6.02678 1.70994 6.12002L9.87993 14.29C10.4424 14.8518 11.2049 15.1674 11.9999 15.1674C12.7949 15.1674 13.5574 14.8518 14.1199 14.29L22.2899 6.12002C22.3829 6.02629 22.4935 5.95189 22.6153 5.90112C22.7372 5.85036 22.8679 5.82422 22.9999 5.82422C23.1319 5.82422 23.2626 5.85036 23.3845 5.90112C23.5063 5.95189 23.6169 6.02629 23.7099 6.12002C23.8026 6.21346 23.8759 6.32427 23.9257 6.44611C23.9754 6.56795 24.0007 6.69841 23.9999 6.83002Z" fill="white"/>
  </g>
  <defs>
    <clipPath id="clip0_102_1818">
      <rect width="24" height="24" fill="white" transform="translate(0 24) rotate(-90)"/>
    </clipPath>
  </defs>
</svg>
