<svg width="12" height="12" viewBox="0 0 12 12" fill="none" xmlns="http://www.w3.org/2000/svg">
  <path d="M9.35491 4.10493C9.30843 4.05807 9.25313 4.02087 9.1922 3.99548C9.13127 3.9701 9.06591 3.95703 8.99991 3.95703C8.9339 3.95703 8.86855 3.9701 8.80762 3.99548C8.74669 4.02087 8.69139 4.05807 8.64491 4.10493L6.35491 6.39493C6.30843 6.44179 6.25313 6.47899 6.1922 6.50437C6.13127 6.52976 6.06591 6.54282 5.99991 6.54282C5.9339 6.54282 5.86855 6.52976 5.80762 6.50437C5.74669 6.47899 5.69139 6.44179 5.64491 6.39493L3.35491 4.10493C3.30843 4.05807 3.25313 4.02087 3.1922 3.99548C3.13127 3.9701 3.06591 3.95703 2.99991 3.95703C2.9339 3.95703 2.86855 3.9701 2.80762 3.99548C2.74669 4.02087 2.69139 4.05807 2.64491 4.10493C2.55178 4.19861 2.49951 4.32534 2.49951 4.45743C2.49951 4.58952 2.55178 4.71625 2.64491 4.80993L4.93991 7.10492C5.22116 7.38582 5.60241 7.5436 5.99991 7.5436C6.39741 7.5436 6.77866 7.38582 7.05991 7.10492L9.35491 4.80993C9.44803 4.71625 9.50031 4.58952 9.50031 4.45743C9.50031 4.32534 9.44803 4.19861 9.35491 4.10493Z" fill="white"/>
</svg>
