<svg width="12" height="12" viewBox="0 0 12 12" fill="none" xmlns="http://www.w3.org/2000/svg">
<g clip-path="url(#clip0_102_1821)">
<path d="M3.41513 -7.72476e-05C3.48093 -0.000457764 3.54617 0.0121546 3.60708 0.0370369C3.668 0.0619192 3.72341 0.0985823 3.77013 0.144923L7.85513 4.22992C8.08795 4.46215 8.27266 4.73802 8.39869 5.04175C8.52473 5.34547 8.5896 5.67108 8.5896 5.99992C8.5896 6.32875 8.52473 6.65436 8.39869 6.95808C8.27266 7.26181 8.08795 7.53768 7.85513 7.76991L3.77013 11.8549C3.72351 11.9015 3.66817 11.9385 3.60725 11.9637C3.54634 11.989 3.48106 12.002 3.41513 12.002C3.3492 12.002 3.28392 11.989 3.22301 11.9637C3.1621 11.9385 3.10675 11.9015 3.06013 11.8549C3.01351 11.8083 2.97653 11.7529 2.9513 11.692C2.92607 11.6311 2.91308 11.5658 2.91308 11.4999C2.91308 11.434 2.92607 11.3687 2.9513 11.3078C2.97653 11.2469 3.01351 11.1915 3.06013 11.1449L7.14513 7.05991C7.42603 6.77866 7.58381 6.39742 7.58381 5.99992C7.58381 5.60241 7.42603 5.22117 7.14513 4.93992L3.06013 0.854921C3.01327 0.808439 2.97607 0.753139 2.95068 0.69221C2.9253 0.631281 2.91223 0.565928 2.91223 0.499922C2.91223 0.433916 2.9253 0.368564 2.95068 0.307633C2.97607 0.246704 3.01327 0.191404 3.06013 0.144923C3.10685 0.0985823 3.16226 0.0619192 3.22318 0.0370369C3.2841 0.0121546 3.34933 -0.000457764 3.41513 -7.72476e-05Z" fill="white"/>
</g>
<defs>
<clipPath id="clip0_102_1821">
<rect width="12" height="12" fill="white" transform="matrix(-1 0 0 -1 12 12)"/>
</clipPath>
</defs>
</svg>
