<svg width="32" height="32" viewBox="0 0 32 32" fill="none" xmlns="http://www.w3.org/2000/svg">
  <g clip-path="url(#clip0_101_3617)">
    <path d="M24.9 8.291C24.5478 7.32722 23.9082 6.4948 23.0676 5.90623C22.2271 5.31767 21.2261 5.00134 20.2 5H11.8C10.7739 5.00134 9.77291 5.31767 8.93236 5.90623C8.09181 6.4948 7.45222 7.32722 7.10001 8.291L4.4 15.718C4.13445 16.4495 3.99908 17.2218 4 18V19C4.00179 19.7728 4.18344 20.5346 4.53057 21.225C4.8777 21.9155 5.38079 22.5156 6.00001 22.978C6.00001 22.986 6.00001 22.992 6.00001 23V25C6.00001 25.7956 6.31608 26.5587 6.87868 27.1213C7.44129 27.6839 8.20436 28 9.00001 28C9.79565 28 10.5587 27.6839 11.1213 27.1213C11.6839 26.5587 12 25.7956 12 25V24H20V25C20 25.7956 20.3161 26.5587 20.8787 27.1213C21.4413 27.6839 22.2044 28 23 28C23.7957 28 24.5587 27.6839 25.1213 27.1213C25.6839 26.5587 26 25.7956 26 25V23C26 22.992 26 22.986 26 22.978C26.6192 22.5156 27.1223 21.9155 27.4694 21.225C27.8166 20.5346 27.9982 19.7728 28 19V18C28.001 17.2221 27.8656 16.4501 27.6 15.719L24.9 8.291ZM8.98201 8.975C9.19344 8.39717 9.57694 7.89805 10.0808 7.54491C10.5847 7.19177 11.1847 7.00159 11.8 7H20.2C20.8156 7.00118 21.4161 7.19117 21.9204 7.54434C22.4246 7.8975 22.8085 8.39685 23.02 8.975L25.208 15H6.791L8.98201 8.975ZM10 25C10 25.2652 9.89465 25.5196 9.70711 25.7071C9.51958 25.8946 9.26522 26 9.00001 26C8.73479 26 8.48043 25.8946 8.2929 25.7071C8.10536 25.5196 8.00001 25.2652 8.00001 25V23.9C8.32913 23.9668 8.66416 24.0003 9.00001 24H10V25ZM24 25C24 25.2652 23.8946 25.5196 23.7071 25.7071C23.5196 25.8946 23.2652 26 23 26C22.7348 26 22.4804 25.8946 22.2929 25.7071C22.1054 25.5196 22 25.2652 22 25V24H23C23.3359 24.0003 23.6709 23.9668 24 23.9V25ZM26 19C26 19.7956 25.6839 20.5587 25.1213 21.1213C24.5587 21.6839 23.7957 22 23 22H9.00001C8.20436 22 7.44129 21.6839 6.87868 21.1213C6.31608 20.5587 6.00001 19.7956 6.00001 19V18C6.00408 17.6633 6.04465 17.328 6.12101 17H8.00001V18C8.00001 18.2652 8.10536 18.5196 8.2929 18.7071C8.48043 18.8946 8.73479 19 9.00001 19C9.26522 19 9.51958 18.8946 9.70711 18.7071C9.89465 18.5196 10 18.2652 10 18V17H22V18C22 18.2652 22.1054 18.5196 22.2929 18.7071C22.4804 18.8946 22.7348 19 23 19C23.2652 19 23.5196 18.8946 23.7071 18.7071C23.8946 18.5196 24 18.2652 24 18V17H25.879C25.9554 17.328 25.996 17.6633 26 18V19Z" fill="white"/>
  </g>
  <defs>
    <clipPath id="clip0_101_3617">
      <rect width="24" height="24" fill="white" transform="translate(4 4)"/>
    </clipPath>
  </defs>
</svg>
