<svg width="24" height="24" viewBox="0 0 24 24" fill="none" xmlns="http://www.w3.org/2000/svg">
  <g clip-path="url(#clip0_102_1816)">
    <path d="M17.17 23.9999C17.0384 24.0007 16.9079 23.9754 16.7861 23.9257C16.6642 23.8759 16.5534 23.8026 16.46 23.7099L8.28998 15.5399C7.82435 15.0755 7.45492 14.5237 7.20286 13.9163C6.95079 13.3088 6.82104 12.6576 6.82104 11.9999C6.82104 11.3423 6.95079 10.691 7.20286 10.0836C7.45492 9.47614 7.82435 8.92439 8.28998 8.45993L16.46 0.289941C16.5532 0.196702 16.6639 0.122742 16.7857 0.0722815C16.9076 0.0218212 17.0381 -0.00415039 17.17 -0.00415039C17.3018 -0.00415039 17.4324 0.0218212 17.5542 0.0722814C17.6761 0.122742 17.7867 0.196702 17.88 0.289941C17.9732 0.383179 18.0472 0.493869 18.0976 0.615691C18.1481 0.737513 18.1741 0.868081 18.1741 0.99994C18.1741 1.1318 18.1481 1.26237 18.0976 1.38419C18.0472 1.50601 17.9732 1.6167 17.88 1.70994L9.70998 9.87993C9.14818 10.4424 8.83262 11.2049 8.83262 11.9999C8.83262 12.7949 9.14818 13.5574 9.70998 14.1199L17.88 22.2899C17.9737 22.3829 18.0481 22.4935 18.0989 22.6153C18.1496 22.7372 18.1758 22.8679 18.1758 22.9999C18.1758 23.1319 18.1496 23.2626 18.0989 23.3845C18.0481 23.5063 17.9737 23.6169 17.88 23.7099C17.7865 23.8026 17.6757 23.8759 17.5539 23.9257C17.4321 23.9754 17.3016 24.0007 17.17 23.9999Z" fill="white"/>
  </g>
  <defs>
    <clipPath id="clip0_102_1816">
      <rect width="24" height="24" fill="white"/>
    </clipPath>
  </defs>
</svg>
