<svg width="18" height="18" viewBox="0 0 18 18" fill="none" xmlns="http://www.w3.org/2000/svg">
  <g clip-path="url(#clip0_102_1788)">
    <path d="M5.25 0H3C2.20435 0 1.44129 0.316071 0.87868 0.87868C0.316071 1.44129 0 2.20435 0 3L0 5.25C0 6.04565 0.316071 6.80871 0.87868 7.37132C1.44129 7.93393 2.20435 8.25 3 8.25H5.25C6.04565 8.25 6.80871 7.93393 7.37132 7.37132C7.93393 6.80871 8.25 6.04565 8.25 5.25V3C8.25 2.20435 7.93393 1.44129 7.37132 0.87868C6.80871 0.316071 6.04565 0 5.25 0V0ZM6.75 5.25C6.75 5.64782 6.59196 6.02936 6.31066 6.31066C6.02936 6.59196 5.64782 6.75 5.25 6.75H3C2.60218 6.75 2.22064 6.59196 1.93934 6.31066C1.65804 6.02936 1.5 5.64782 1.5 5.25V3C1.5 2.60218 1.65804 2.22064 1.93934 1.93934C2.22064 1.65804 2.60218 1.5 3 1.5H5.25C5.64782 1.5 6.02936 1.65804 6.31066 1.93934C6.59196 2.22064 6.75 2.60218 6.75 3V5.25Z" fill="white"/>
    <path d="M15 0H12.75C11.9543 0 11.1913 0.316071 10.6287 0.87868C10.0661 1.44129 9.75 2.20435 9.75 3V5.25C9.75 6.04565 10.0661 6.80872 10.6287 7.37133C11.1913 7.93394 11.9543 8.25001 12.75 8.25001H15C15.7956 8.25001 16.5587 7.93394 17.1213 7.37133C17.6839 6.80872 18 6.04565 18 5.25V3C18 2.20435 17.6839 1.44129 17.1213 0.87868C16.5587 0.316071 15.7956 0 15 0V0ZM16.5 5.25C16.5 5.64783 16.342 6.02936 16.0607 6.31066C15.7793 6.59197 15.3978 6.75 15 6.75H12.75C12.3522 6.75 11.9706 6.59197 11.6893 6.31066C11.408 6.02936 11.25 5.64783 11.25 5.25V3C11.25 2.60218 11.408 2.22065 11.6893 1.93934C11.9706 1.65804 12.3522 1.5 12.75 1.5H15C15.3978 1.5 15.7793 1.65804 16.0607 1.93934C16.342 2.22065 16.5 2.60218 16.5 3V5.25Z" fill="white"/>
    <path d="M5.25 9.75H3C2.20435 9.75 1.44129 10.0661 0.87868 10.6287C0.316071 11.1913 0 11.9544 0 12.75L0 15C0 15.7957 0.316071 16.5587 0.87868 17.1213C1.44129 17.6839 2.20435 18 3 18H5.25C6.04565 18 6.80871 17.6839 7.37132 17.1213C7.93393 16.5587 8.25 15.7957 8.25 15V12.75C8.25 11.9544 7.93393 11.1913 7.37132 10.6287C6.80871 10.0661 6.04565 9.75 5.25 9.75ZM6.75 15C6.75 15.3978 6.59196 15.7794 6.31066 16.0607C6.02936 16.342 5.64782 16.5 5.25 16.5H3C2.60218 16.5 2.22064 16.342 1.93934 16.0607C1.65804 15.7794 1.5 15.3978 1.5 15V12.75C1.5 12.3522 1.65804 11.9706 1.93934 11.6893C2.22064 11.408 2.60218 11.25 3 11.25H5.25C5.64782 11.25 6.02936 11.408 6.31066 11.6893C6.59196 11.9706 6.75 12.3522 6.75 12.75V15Z" fill="white"/>
    <path d="M15 9.75H12.75C11.9543 9.75 11.1913 10.0661 10.6287 10.6287C10.0661 11.1913 9.75 11.9544 9.75 12.75V15C9.75 15.7957 10.0661 16.5587 10.6287 17.1213C11.1913 17.6839 11.9543 18 12.75 18H15C15.7956 18 16.5587 17.6839 17.1213 17.1213C17.6839 16.5587 18 15.7957 18 15V12.75C18 11.9544 17.6839 11.1913 17.1213 10.6287C16.5587 10.0661 15.7956 9.75 15 9.75ZM16.5 15C16.5 15.3978 16.342 15.7794 16.0607 16.0607C15.7793 16.342 15.3978 16.5 15 16.5H12.75C12.3522 16.5 11.9706 16.342 11.6893 16.0607C11.408 15.7794 11.25 15.3978 11.25 15V12.75C11.25 12.3522 11.408 11.9706 11.6893 11.6893C11.9706 11.408 12.3522 11.25 12.75 11.25H15C15.3978 11.25 15.7793 11.408 16.0607 11.6893C16.342 11.9706 16.5 12.3522 16.5 12.75V15Z" fill="white"/>
  </g>
  <defs>
    <clipPath id="clip0_102_1788">
      <rect width="18" height="18" fill="white"/>
    </clipPath>
  </defs>
</svg>
