<svg width="20" height="20" viewBox="0 0 20 20" fill="none" xmlns="http://www.w3.org/2000/svg">
  <g clip-path="url(#clip0_102_1840)">
    <path d="M10 0C8.02219 0 6.08879 0.58649 4.4443 1.6853C2.79981 2.78412 1.51809 4.3459 0.761209 6.17317C0.00433286 8.00043 -0.193701 10.0111 0.192152 11.9509C0.578004 13.8907 1.53041 15.6725 2.92894 17.0711C4.32746 18.4696 6.10929 19.422 8.0491 19.8079C9.98891 20.1937 11.9996 19.9957 13.8268 19.2388C15.6541 18.4819 17.2159 17.2002 18.3147 15.5557C19.4135 13.9112 20 11.9778 20 10C19.9971 7.34872 18.9426 4.80684 17.0679 2.9321C15.1932 1.05736 12.6513 0.00286757 10 0V0ZM17.9775 7.6L10.5542 9.04333C10.4373 8.86301 10.3348 8.67382 10.2475 8.4775L7.46417 2.06083C8.51787 1.7231 9.62833 1.59888 10.7306 1.69543C11.8329 1.79198 12.9049 2.10736 13.8838 2.62314C14.8627 3.13891 15.729 3.84471 16.4319 4.69927C17.1348 5.55382 17.6603 6.53996 17.9775 7.6ZM10 18.3333C8.15594 18.334 6.36378 17.7227 4.90452 16.5952C3.44526 15.4678 2.40142 13.8879 1.93665 12.1034C1.47188 10.3189 1.61247 8.43055 2.33637 6.7345C3.06027 5.03846 4.32655 3.63061 5.93667 2.73167L8.71834 9.14083C9.11414 10.0518 9.73566 10.8469 10.5242 11.4508L16.0683 15.6942C15.2917 16.5265 14.3523 17.1902 13.3084 17.6443C12.2645 18.0983 11.1384 18.3328 10 18.3333ZM17.0833 14.3708L11.9792 10.4642L18.2967 9.23667C18.3192 9.48667 18.335 9.7425 18.335 10C18.3343 11.5453 17.9007 13.0594 17.0833 14.3708Z" fill="white"/>
  </g>
  <defs>
    <clipPath id="clip0_102_1840">
      <rect width="20" height="20" fill="white"/>
    </clipPath>
  </defs>
</svg>
