<svg width="18" height="18" viewBox="0 0 18 18" fill="none" xmlns="http://www.w3.org/2000/svg">
  <g clip-path="url(#clip0_102_1798)">
    <path d="M4.125 10.9502C4.74632 10.9502 5.25 10.4465 5.25 9.8252C5.25 9.20387 4.74632 8.7002 4.125 8.7002C3.50368 8.7002 3 9.20387 3 9.8252C3 10.4465 3.50368 10.9502 4.125 10.9502Z" fill="white"/>
    <path d="M14.25 0.449951H3.75C2.7558 0.451142 1.80267 0.846613 1.09966 1.54962C0.396661 2.25262 0.00119089 3.20575 0 4.19995L0 10.2C0.00119089 11.1941 0.396661 12.1473 1.09966 12.8503C1.80267 13.5533 2.7558 13.9488 3.75 13.95H14.25C15.2442 13.9488 16.1973 13.5533 16.9003 12.8503C17.6033 12.1473 17.9988 11.1941 18 10.2V4.19995C17.9988 3.20575 17.6033 2.25262 16.9003 1.54962C16.1973 0.846613 15.2442 0.451142 14.25 0.449951ZM3.75 1.94995H14.25C14.8467 1.94995 15.419 2.187 15.841 2.60896C16.2629 3.03092 16.5 3.60321 16.5 4.19995H1.5C1.5 3.60321 1.73705 3.03092 2.15901 2.60896C2.58097 2.187 3.15326 1.94995 3.75 1.94995ZM14.25 12.45H3.75C3.15326 12.45 2.58097 12.2129 2.15901 11.7909C1.73705 11.369 1.5 10.7967 1.5 10.2V5.69995H16.5V10.2C16.5 10.7967 16.2629 11.369 15.841 11.7909C15.419 12.2129 14.8467 12.45 14.25 12.45Z" fill="white"/>
    <path fill-rule="evenodd" clip-rule="evenodd" d="M18 14.25L16.5 14.85C16.5 15.4468 16.2629 15.419 15.841 15.841C15.419 16.2629 14.8467 16.5 14.25 16.5H3.75C3.15326 16.5 2.58097 16.2629 2.15901 15.841C1.73705 15.419 1.5 15.4468 1.5 14.85L0 14.25C0.00119089 15.2442 0.396661 16.1973 1.09966 16.9003C1.80267 17.6033 2.7558 17.9988 3.75 18H14.25C15.2442 17.9988 16.1973 17.6033 16.9003 16.9003C17.6033 16.1973 17.9988 15.2442 18 14.25Z" fill="white"/>
  </g>
  <defs>
    <clipPath id="clip0_102_1798">
      <rect width="18" height="18" fill="white"/>
    </clipPath>
  </defs>
</svg>
