<svg width="32" height="32" viewBox="0 0 32 32" fill="none" xmlns="http://www.w3.org/2000/svg">
  <g clip-path="url(#clip0_101_3619)">
    <path d="M8.99975 18C9.55204 18 9.99975 17.5523 9.99975 17C9.99975 16.4477 9.55204 16 8.99975 16C8.44747 16 7.99976 16.4477 7.99976 17C7.99976 17.5523 8.44747 18 8.99975 18Z" fill="white"/>
    <path d="M5 14.0002C5.55228 14.0002 6 13.5525 6 13.0002C6 12.448 5.55228 12.0002 5 12.0002C4.44772 12.0002 4 12.448 4 13.0002C4 13.5525 4.44772 14.0002 5 14.0002Z" fill="white"/>
    <path d="M8.99975 9.99975C9.55204 9.99975 9.99975 9.55204 9.99975 8.99975C9.99975 8.44747 9.55204 7.99976 8.99975 7.99976C8.44747 7.99976 7.99976 8.44747 7.99976 8.99975C7.99976 9.55204 8.44747 9.99975 8.99975 9.99975Z" fill="white"/>
    <path d="M5 6C5.55228 6 6 5.55228 6 5C6 4.44772 5.55228 4 5 4C4.44772 4 4 4.44772 4 5C4 5.55228 4.44772 6 5 6Z" fill="white"/>
    <path d="M26.9997 18C27.552 18 27.9997 17.5523 27.9997 17C27.9997 16.4477 27.552 16 26.9997 16C26.4475 16 25.9998 16.4477 25.9998 17C25.9998 17.5523 26.4475 18 26.9997 18Z" fill="white"/>
    <path d="M23 14.0002C23.5523 14.0002 24 13.5525 24 13.0002C24 12.448 23.5523 12.0002 23 12.0002C22.4477 12.0002 22 12.448 22 13.0002C22 13.5525 22.4477 14.0002 23 14.0002Z" fill="white"/>
    <path d="M26.9997 9.99975C27.552 9.99975 27.9997 9.55204 27.9997 8.99975C27.9997 8.44747 27.552 7.99976 26.9997 7.99976C26.4475 7.99976 25.9998 8.44747 25.9998 8.99975C25.9998 9.55204 26.4475 9.99975 26.9997 9.99975Z" fill="white"/>
    <path d="M23 6C23.5523 6 24 5.55228 24 5C24 4.44772 23.5523 4 23 4C22.4477 4 22 4.44772 22 5C22 5.55228 22.4477 6 23 6Z" fill="white"/>
    <path d="M17.9998 27.9997C18.552 27.9997 18.9998 27.552 18.9998 26.9997C18.9998 26.4475 18.552 25.9998 17.9998 25.9998C17.4475 25.9998 16.9998 26.4475 16.9998 26.9997C16.9998 27.552 17.4475 27.9997 17.9998 27.9997Z" fill="white"/>
    <path d="M14 24C14.5523 24 15 23.5523 15 23C15 22.4477 14.5523 22 14 22C13.4477 22 13 22.4477 13 23C13 23.5523 13.4477 24 14 24Z" fill="white"/>
    <path d="M17.9998 20.0003C18.552 20.0003 18.9998 19.5525 18.9998 19.0002C18.9998 18.448 18.552 18.0002 17.9998 18.0002C17.4475 18.0002 16.9998 18.448 16.9998 19.0002C16.9998 19.5525 17.4475 20.0003 17.9998 20.0003Z" fill="white"/>
    <path d="M14 15.9998C14.5523 15.9998 15 15.552 15 14.9998C15 14.4475 14.5523 13.9998 14 13.9998C13.4477 13.9998 13 14.4475 13 14.9998C13 15.552 13.4477 15.9998 14 15.9998Z" fill="white"/>
    <path d="M19.0002 7C18.4698 7 17.9611 6.78929 17.586 6.41421C17.2109 6.03914 17.0002 5.53043 17.0002 5C17.0002 4.73478 16.8949 4.48043 16.7073 4.29289C16.5198 4.10536 16.2655 4 16.0002 4C15.735 4 15.4807 4.10536 15.2931 4.29289C15.1056 4.48043 15.0002 4.73478 15.0002 5C15.0002 5.53043 14.7895 6.03914 14.4145 6.41421C14.0394 6.78929 13.5307 7 13.0002 7C12.735 7 12.4807 7.10536 12.2931 7.29289C12.1056 7.48043 12.0002 7.73478 12.0002 8C12.0002 8.26522 12.1056 8.51957 12.2931 8.70711C12.4807 8.89464 12.735 9 13.0002 9C13.5307 9 14.0394 9.21071 14.4145 9.58579C14.7895 9.96086 15.0002 10.4696 15.0002 11C15.0002 11.2652 15.1056 11.5196 15.2931 11.7071C15.4807 11.8946 15.735 12 16.0002 12C16.2655 12 16.5198 11.8946 16.7073 11.7071C16.8949 11.5196 17.0002 11.2652 17.0002 11C17.0002 10.4696 17.2109 9.96086 17.586 9.58579C17.9611 9.21071 18.4698 9 19.0002 9C19.2654 9 19.5198 8.89464 19.7073 8.70711C19.8949 8.51957 20.0002 8.26522 20.0002 8C20.0002 7.73478 19.8949 7.48043 19.7073 7.29289C19.5198 7.10536 19.2654 7 19.0002 7Z" fill="white"/>
    <path d="M11 22.9998C10.4696 22.9998 9.96086 22.789 9.58579 22.414C9.21071 22.0389 9 21.5302 9 20.9998C9 20.7345 8.89464 20.4802 8.70711 20.2926C8.51957 20.1051 8.26522 19.9998 8 19.9998C7.73478 19.9998 7.48043 20.1051 7.29289 20.2926C7.10536 20.4802 7 20.7345 7 20.9998C7 21.5302 6.78929 22.0389 6.41421 22.414C6.03914 22.789 5.53043 22.9998 5 22.9998C4.73478 22.9998 4.48043 23.1051 4.29289 23.2926C4.10536 23.4802 4 23.7345 4 23.9997C4 24.265 4.10536 24.5193 4.29289 24.7069C4.48043 24.8944 4.73478 24.9997 5 24.9997C5.53043 24.9997 6.03914 25.2105 6.41421 25.5855C6.78929 25.9606 7 26.4693 7 26.9997C7 27.265 7.10536 27.5193 7.29289 27.7068C7.48043 27.8944 7.73478 27.9997 8 27.9997C8.26522 27.9997 8.51957 27.8944 8.70711 27.7068C8.89464 27.5193 9 27.265 9 26.9997C9 26.4693 9.21071 25.9606 9.58579 25.5855C9.96086 25.2105 10.4696 24.9997 11 24.9997C11.2652 24.9997 11.5196 24.8944 11.7071 24.7069C11.8946 24.5193 12 24.265 12 23.9997C12 23.7345 11.8946 23.4802 11.7071 23.2926C11.5196 23.1051 11.2652 22.9998 11 22.9998Z" fill="white"/>
    <path d="M26.9997 22.9998C26.4693 22.9998 25.9606 22.789 25.5855 22.414C25.2105 22.0389 24.9997 21.5302 24.9997 20.9998C24.9997 20.7345 24.8944 20.4802 24.7069 20.2926C24.5193 20.1051 24.265 19.9998 23.9997 19.9998C23.7345 19.9998 23.4802 20.1051 23.2926 20.2926C23.1051 20.4802 22.9998 20.7345 22.9998 20.9998C22.9998 21.5302 22.789 22.0389 22.414 22.414C22.0389 22.789 21.5302 22.9998 20.9998 22.9998C20.7345 22.9998 20.4802 23.1051 20.2926 23.2926C20.1051 23.4802 19.9998 23.7345 19.9998 23.9997C19.9998 24.265 20.1051 24.5193 20.2926 24.7069C20.4802 24.8944 20.7345 24.9997 20.9998 24.9997C21.5302 24.9997 22.0389 25.2105 22.414 25.5855C22.789 25.9606 22.9998 26.4693 22.9998 26.9997C22.9998 27.265 23.1051 27.5193 23.2926 27.7068C23.4802 27.8944 23.7345 27.9997 23.9997 27.9997C24.265 27.9997 24.5193 27.8944 24.7069 27.7068C24.8944 27.5193 24.9997 27.265 24.9997 26.9997C24.9997 26.4693 25.2105 25.9606 25.5855 25.5855C25.9606 25.2105 26.4693 24.9997 26.9997 24.9997C27.265 24.9997 27.5193 24.8944 27.7068 24.7069C27.8944 24.5193 27.9997 24.265 27.9997 23.9997C27.9997 23.7345 27.8944 23.4802 27.7068 23.2926C27.5193 23.1051 27.265 22.9998 26.9997 22.9998Z" fill="white"/>
  </g>
  <defs>
    <clipPath id="clip0_101_3619">
      <rect width="24" height="24" fill="white" transform="translate(4 4)"/>
    </clipPath>
  </defs>
</svg>
