<svg width="20" height="20" viewBox="0 0 20 20" fill="none" xmlns="http://www.w3.org/2000/svg">
  <g clip-path="url(#clip0_102_1848)">
    <path d="M9.25602 12.0392C9.30442 12.138 9.37188 12.2262 9.45453 12.2987C9.53718 12.3713 9.63337 12.4268 9.73756 12.462C9.84176 12.4972 9.95189 12.5114 10.0616 12.5039C10.1713 12.4963 10.2785 12.4671 10.3769 12.4179C10.4752 12.3688 10.5629 12.3006 10.6348 12.2174C10.7067 12.1342 10.7615 12.0376 10.7959 11.9331C10.8303 11.8287 10.8436 11.7184 10.8352 11.6088C10.8268 11.4991 10.7968 11.3922 10.7469 11.2942L6.16352 2.12752C6.09432 1.98907 5.98793 1.87263 5.85627 1.79124C5.72461 1.70986 5.57289 1.66675 5.41811 1.66675C5.26332 1.66675 5.1116 1.70986 4.97994 1.79124C4.84828 1.87263 4.74189 1.98907 4.67269 2.12752L0.0893553 11.2942C0.0394268 11.3922 0.00939009 11.4991 0.000976963 11.6088C-0.00743616 11.7184 0.00594074 11.8287 0.0403364 11.9331C0.0747321 12.0376 0.129466 12.1342 0.201383 12.2174C0.273299 12.3006 0.360976 12.3688 0.459357 12.4179C0.557739 12.4671 0.664879 12.4963 0.7746 12.5039C0.884322 12.5114 0.994454 12.4972 1.09865 12.462C1.20284 12.4268 1.29903 12.3713 1.38168 12.2987C1.46433 12.2262 1.53179 12.138 1.58019 12.0392L3.01602 9.16669H7.81936L9.25602 12.0392ZM3.84936 7.50003L5.41686 4.36336L6.98602 7.50003H3.84936Z" fill="white"/>
    <path d="M19.7557 9.41025C19.5995 9.25402 19.3875 9.16626 19.1666 9.16626C18.9456 9.16626 18.7337 9.25402 18.5774 9.41025L10.8332 17.1544L7.25574 13.5769C7.17887 13.4973 7.08691 13.4338 6.98524 13.3902C6.88357 13.3465 6.77422 13.3235 6.66357 13.3225C6.55292 13.3216 6.44319 13.3427 6.34078 13.3846C6.23836 13.4265 6.14532 13.4883 6.06708 13.5666C5.98883 13.6448 5.92695 13.7379 5.88505 13.8403C5.84315 13.9427 5.82207 14.0524 5.82303 14.1631C5.82399 14.2737 5.84698 14.3831 5.89065 14.4847C5.93433 14.5864 5.99781 14.6784 6.07741 14.7552L10.2441 18.9219C10.4003 19.0781 10.6123 19.1659 10.8332 19.1659C11.0542 19.1659 11.2661 19.0781 11.4224 18.9219L19.7557 10.5886C19.912 10.4323 19.9997 10.2204 19.9997 9.99941C19.9997 9.77844 19.912 9.56652 19.7557 9.41025Z" fill="white"/>
  </g>
  <defs>
    <clipPath id="clip0_102_1848">
      <rect width="20" height="20" fill="white"/>
    </clipPath>
  </defs>
</svg>
