<svg width="20" height="20" viewBox="0 0 20 20" fill="none" xmlns="http://www.w3.org/2000/svg">
  <g clip-path="url(#clip0_102_1833)">
    <path d="M14.8268 6.01001C14.4565 4.41774 13.514 3.01705 12.1786 2.07416C10.8431 1.13128 9.20778 0.71194 7.58339 0.895855C5.95901 1.07977 4.45882 1.85412 3.36799 3.07171C2.27716 4.2893 1.67173 5.86526 1.66678 7.50001C1.66606 8.56534 1.92339 9.61499 2.41678 10.5592C1.51772 11.041 0.805443 11.8094 0.393126 12.7423C-0.0191916 13.6753 -0.107903 14.7193 0.141086 15.7085C0.390075 16.6976 0.962482 17.5752 1.76736 18.2018C2.57224 18.8283 3.56343 19.168 4.58344 19.1667H13.3334C14.966 19.1591 16.5391 18.5527 17.7543 17.4625C18.9696 16.3723 19.7425 14.8741 19.9266 13.2519C20.1108 11.6298 19.6932 9.99643 18.7532 8.66161C17.8132 7.32678 16.4161 6.38329 14.8268 6.01001ZM13.3334 17.5H4.58344C3.8738 17.5021 3.18785 17.2448 2.65471 16.7764C2.12157 16.3081 1.77801 15.661 1.68871 14.957C1.5994 14.253 1.7705 13.5406 2.16981 12.9539C2.56911 12.3673 3.16908 11.9468 3.85678 11.7717C3.98904 11.7376 4.1109 11.6716 4.21165 11.5794C4.3124 11.4872 4.38894 11.3716 4.43454 11.2429C4.48014 11.1142 4.4934 10.9762 4.47315 10.8411C4.45291 10.7061 4.39978 10.5781 4.31844 10.4683C3.67773 9.61146 3.33212 8.56994 3.33344 7.50001C3.34295 6.23833 3.8291 5.02689 4.69439 4.10864C5.55969 3.19038 6.74015 2.63322 7.99904 2.54887C9.25794 2.46452 10.5022 2.85923 11.4822 3.65384C12.4623 4.44845 13.1057 5.58421 13.2834 6.83334C13.3074 7.01472 13.3904 7.18317 13.5196 7.31269C13.6489 7.44221 13.8171 7.52561 13.9984 7.55001C15.2475 7.72771 16.3831 8.37099 17.1777 9.35087C17.9724 10.3308 18.3672 11.5748 18.2831 12.8336C18.1989 14.0924 17.6421 15.2728 16.7241 16.1382C15.8062 17.0037 14.595 17.4901 13.3334 17.5Z" fill="white"/>
  </g>
  <defs>
    <clipPath id="clip0_102_1833">
      <rect width="20" height="20" fill="white"/>
    </clipPath>
  </defs>
</svg>
