<svg width="16" height="16" viewBox="0 0 16 16" fill="none" xmlns="http://www.w3.org/2000/svg">
<path d="M15.163 7.9085C15.163 7.68344 15.1093 7.47224 15.0194 7.28029C14.4194 5.34467 11.6104 5.48606 7.61473 5.39165C6.94671 5.37599 7.32882 4.58715 7.56328 2.85556C7.71585 1.72935 6.98966 0 5.76904 0C3.75646 0 5.69253 1.58752 3.91306 5.51335C2.96225 7.61095 0.836914 6.43597 0.836914 8.54297V13.3391C0.836914 14.1592 0.917453 14.9476 2.07095 15.0774C3.18911 15.2031 2.93764 16 4.55066 16H12.6243C13.4467 16 14.1156 15.3306 14.1156 14.5082C14.1156 14.1673 13.9961 13.8568 13.8033 13.6053C14.2597 13.3498 14.5729 12.8675 14.5729 12.3082C14.5729 11.9681 14.4539 11.6576 14.2615 11.4066C14.7192 11.1515 15.0333 10.6688 15.0333 10.1086C15.0333 9.70184 14.8686 9.33315 14.6033 9.06334C14.942 8.78996 15.163 8.37652 15.163 7.9085Z" fill="#FFDB5E"/>
<path d="M9.82242 9.39987H13.6722C14.1957 9.39987 14.687 9.11977 14.9546 8.6692C15.0646 8.48351 15.0033 8.24324 14.8172 8.13272C14.6315 8.0222 14.3912 8.0844 14.2807 8.27009C14.1541 8.48441 13.9201 8.61685 13.6717 8.61685H9.7298C9.33919 8.61685 9.0215 8.29917 9.0215 7.90855C9.0215 7.51794 9.33919 7.20026 9.7298 7.20026H12.3639C12.58 7.20026 12.7554 7.02486 12.7554 6.80875C12.7554 6.59263 12.58 6.41724 12.3639 6.41724H9.72935C8.90696 6.41724 8.23804 7.08616 8.23804 7.90855C8.23804 8.36718 8.45057 8.77301 8.7772 9.04684C8.50203 9.31754 8.33066 9.69339 8.33066 10.1086C8.33066 10.5686 8.54453 10.9758 8.87295 11.2491C8.59957 11.5194 8.42999 11.8939 8.42999 12.3082C8.42999 12.8094 8.68011 13.2514 9.06043 13.5221C8.82597 13.7857 8.67921 14.1289 8.67921 14.5083C8.67921 15.3307 9.34814 15.9996 10.1705 15.9996H12.6243C13.1478 15.9996 13.6395 15.72 13.9071 15.2694C14.0176 15.0837 13.9563 14.8434 13.7706 14.7329C13.5845 14.6233 13.3442 14.6837 13.2342 14.8694C13.1066 15.0837 12.8726 15.2166 12.6243 15.2166H10.1705C9.77991 15.2166 9.46223 14.8989 9.46223 14.5083C9.46223 14.1177 9.77991 13.8 10.1705 13.8H13.0816C13.6051 13.8 14.0973 13.5199 14.3644 13.0693C14.4749 12.8832 14.4136 12.6429 14.2279 12.5328C14.0404 12.4205 13.8011 12.4836 13.6914 12.6693C13.5621 12.8872 13.3339 13.017 13.0816 13.017H9.92131C9.53069 13.017 9.21301 12.6988 9.21301 12.3082C9.21301 11.9176 9.53069 11.5999 9.92131 11.5999H13.5415C14.065 11.5999 14.5568 11.3203 14.8244 10.8697C14.9349 10.684 14.8736 10.4437 14.6879 10.3332C14.5013 10.2232 14.2615 10.284 14.1514 10.4697C14.0221 10.6872 13.7939 10.8169 13.5415 10.8169H9.82242C9.43181 10.8169 9.11412 10.4992 9.11412 10.1086C9.11412 9.718 9.43136 9.39987 9.82242 9.39987Z" fill="#EE9547"/>
</svg>
