<svg width="56" height="34" viewBox="0 0 56 34" fill="none" xmlns="http://www.w3.org/2000/svg">
  <path fill-rule="evenodd" clip-rule="evenodd" d="M20.2192 30.3215H35.2072V3.62939H20.2192V30.3215Z" fill="#FF5F00"/>
  <path fill-rule="evenodd" clip-rule="evenodd" d="M21.1711 16.9755C21.1711 11.5603 23.7296 6.73739 27.7135 3.62946C24.7997 1.35615 21.1235 0 17.1277 0C7.66814 0 0 7.60031 0 16.9755C0 26.3507 7.66814 33.951 17.1277 33.951C21.1235 33.951 24.7997 32.5949 27.7135 30.3216C23.7296 27.2132 21.1711 22.3907 21.1711 16.9755Z" fill="#EB001B"/>
  <path fill-rule="evenodd" clip-rule="evenodd" d="M54.8921 27.4944V26.8357H54.7184L54.519 27.2888L54.3192 26.8357H54.1455V27.4944H54.2678V26.9974L54.4553 27.426H54.5823L54.7698 26.9965V27.4944H54.8921ZM53.7925 27.4944V26.9479H54.0152V26.8366H53.449V26.9479H53.6712V27.4944H53.7925ZM55.4269 16.9753C55.4269 26.3505 47.7583 33.9508 38.2992 33.9508C34.3033 33.9508 30.6268 32.5946 27.7134 30.3213C31.6973 27.2134 34.2558 22.3905 34.2558 16.9753C34.2558 11.5605 31.6973 6.73762 27.7134 3.62921C30.6268 1.35591 34.3033 -0.000244141 38.2992 -0.000244141C47.7583 -0.000244141 55.4269 7.60007 55.4269 16.9753Z" fill="#F79E1B"/>
</svg>
