<svg width="20" height="20" viewBox="0 0 20 20" fill="none" xmlns="http://www.w3.org/2000/svg">
  <g clip-path="url(#clip0_102_1842)">
    <path d="M15.8333 16.6668H4.16667C3.062 16.6655 2.00296 16.2261 1.22185 15.445C0.440735 14.6639 0.00132321 13.6048 0 12.5002L0 7.50016C0.00132321 6.3955 0.440735 5.33646 1.22185 4.55535C2.00296 3.77423 3.062 3.33482 4.16667 3.3335H15.8333C16.938 3.33482 17.997 3.77423 18.7782 4.55535C19.5593 5.33646 19.9987 6.3955 20 7.50016V12.5002C19.9987 13.6048 19.5593 14.6639 18.7782 15.445C17.997 16.2261 16.938 16.6655 15.8333 16.6668ZM4.16667 5.00016C3.50363 5.00016 2.86774 5.26356 2.3989 5.7324C1.93006 6.20124 1.66667 6.83712 1.66667 7.50016V12.5002C1.66667 13.1632 1.93006 13.7991 2.3989 14.2679C2.86774 14.7368 3.50363 15.0002 4.16667 15.0002H15.8333C16.4964 15.0002 17.1323 14.7368 17.6011 14.2679C18.0699 13.7991 18.3333 13.1632 18.3333 12.5002V7.50016C18.3333 6.83712 18.0699 6.20124 17.6011 5.7324C17.1323 5.26356 16.4964 5.00016 15.8333 5.00016H4.16667ZM10 13.3335C9.34073 13.3335 8.69626 13.138 8.1481 12.7717C7.59994 12.4055 7.17269 11.8849 6.9204 11.2758C6.66811 10.6667 6.6021 9.99647 6.73072 9.34986C6.85933 8.70326 7.1768 8.10932 7.64298 7.64314C8.10915 7.17697 8.7031 6.8595 9.3497 6.73088C9.9963 6.60226 10.6665 6.66827 11.2756 6.92056C11.8847 7.17286 12.4053 7.6001 12.7716 8.14826C13.1378 8.69643 13.3333 9.34089 13.3333 10.0002C13.3333 10.8842 12.9821 11.7321 12.357 12.3572C11.7319 12.9823 10.8841 13.3335 10 13.3335ZM10 8.3335C9.67036 8.3335 9.34813 8.43124 9.07405 8.61438C8.79997 8.79752 8.58635 9.05781 8.4602 9.36236C8.33405 9.6669 8.30105 10.002 8.36536 10.3253C8.42967 10.6486 8.5884 10.9456 8.82149 11.1787C9.05458 11.4118 9.35155 11.5705 9.67485 11.6348C9.99815 11.6991 10.3333 11.6661 10.6378 11.54C10.9423 11.4138 11.2026 11.2002 11.3858 10.9261C11.5689 10.652 11.6667 10.3298 11.6667 10.0002C11.6667 9.55814 11.4911 9.13421 11.1785 8.82165C10.8659 8.50909 10.442 8.3335 10 8.3335ZM4.16667 6.66683C4.00185 6.66683 3.84073 6.7157 3.70369 6.80727C3.56665 6.89884 3.45984 7.02899 3.39677 7.18126C3.33369 7.33353 3.31719 7.50109 3.34935 7.66274C3.3815 7.82439 3.46087 7.97287 3.57741 8.08942C3.69395 8.20596 3.84244 8.28533 4.00409 8.31748C4.16574 8.34964 4.3333 8.33314 4.48557 8.27006C4.63784 8.20699 4.76799 8.10018 4.85956 7.96314C4.95113 7.8261 5 7.66498 5 7.50016C5 7.27915 4.9122 7.06719 4.75592 6.91091C4.59964 6.75463 4.38768 6.66683 4.16667 6.66683ZM15 7.50016C15 7.66498 15.0489 7.8261 15.1404 7.96314C15.232 8.10018 15.3622 8.20699 15.5144 8.27006C15.6667 8.33314 15.8343 8.34964 15.9959 8.31748C16.1576 8.28533 16.306 8.20596 16.4226 8.08942C16.5391 7.97287 16.6185 7.82439 16.6507 7.66274C16.6828 7.50109 16.6663 7.33353 16.6032 7.18126C16.5402 7.02899 16.4333 6.89884 16.2963 6.80727C16.1593 6.7157 15.9982 6.66683 15.8333 6.66683C15.6123 6.66683 15.4004 6.75463 15.2441 6.91091C15.0878 7.06719 15 7.27915 15 7.50016ZM4.16667 11.6668C4.00185 11.6668 3.84073 11.7157 3.70369 11.8073C3.56665 11.8988 3.45984 12.029 3.39677 12.1813C3.33369 12.3335 3.31719 12.5011 3.34935 12.6627C3.3815 12.8244 3.46087 12.9729 3.57741 13.0894C3.69395 13.206 3.84244 13.2853 4.00409 13.3175C4.16574 13.3496 4.3333 13.3331 4.48557 13.2701C4.63784 13.207 4.76799 13.1002 4.85956 12.9631C4.95113 12.8261 5 12.665 5 12.5002C5 12.2791 4.9122 12.0672 4.75592 11.9109C4.59964 11.7546 4.38768 11.6668 4.16667 11.6668ZM15 12.5002C15 12.665 15.0489 12.8261 15.1404 12.9631C15.232 13.1002 15.3622 13.207 15.5144 13.2701C15.6667 13.3331 15.8343 13.3496 15.9959 13.3175C16.1576 13.2853 16.306 13.206 16.4226 13.0894C16.5391 12.9729 16.6185 12.8244 16.6507 12.6627C16.6828 12.5011 16.6663 12.3335 16.6032 12.1813C16.5402 12.029 16.4333 11.8988 16.2963 11.8073C16.1593 11.7157 15.9982 11.6668 15.8333 11.6668C15.6123 11.6668 15.4004 11.7546 15.2441 11.9109C15.0878 12.0672 15 12.2791 15 12.5002Z" fill="white"/>
  </g>
  <defs>
    <clipPath id="clip0_102_1842">
      <rect width="20" height="20" fill="white"/>
    </clipPath>
  </defs>
</svg>
