<svg width="32" height="32" viewBox="0 0 32 32" fill="none" xmlns="http://www.w3.org/2000/svg">
  <g clip-path="url(#clip0_101_3621)">
    <path d="M9.972 26.2841C9.75341 26.284 9.54087 26.2123 9.3669 26.08C9.19292 25.9476 9.0671 25.762 9.00869 25.5513C8.95027 25.3407 8.96248 25.1167 9.04345 24.9137C9.12441 24.7106 9.26967 24.5397 9.457 24.4271C13 22.2991 13 17.7291 13 14.9991C13 14.2034 13.3161 13.4404 13.8787 12.8778C14.4413 12.3151 15.2044 11.9991 16 11.9991C16.7956 11.9991 17.5587 12.3151 18.1213 12.8778C18.6839 13.4404 19 14.2034 19 14.9991C19 15.2643 18.8946 15.5186 18.7071 15.7062C18.5196 15.8937 18.2652 15.9991 18 15.9991C17.7348 15.9991 17.4804 15.8937 17.2929 15.7062C17.1054 15.5186 17 15.2643 17 14.9991C17 14.7339 16.8946 14.4795 16.7071 14.292C16.5196 14.1044 16.2652 13.9991 16 13.9991C15.7348 13.9991 15.4804 14.1044 15.2929 14.292C15.1054 14.4795 15 14.7339 15 14.9991C15 17.9461 15 23.4331 10.486 26.1421C10.3307 26.2351 10.153 26.2841 9.972 26.2841ZM14.935 27.7051C17.217 25.4051 18.55 22.1711 18.896 18.0841C18.9077 17.953 18.8933 17.8209 18.8538 17.6953C18.8143 17.5697 18.7504 17.4532 18.6658 17.3524C18.5811 17.2516 18.4774 17.1685 18.3606 17.1079C18.2438 17.0472 18.1161 17.0103 17.985 16.9991C17.8538 16.9856 17.7212 16.9987 17.5951 17.0376C17.4691 17.0764 17.3521 17.1403 17.2513 17.2253C17.1504 17.3103 17.0677 17.4147 17.008 17.5324C16.9483 17.65 16.913 17.7785 16.904 17.9101C16.593 21.5671 15.485 24.3101 13.516 26.2911C13.329 26.4792 13.2245 26.734 13.2253 26.9993C13.2261 27.2645 13.3323 27.5186 13.5205 27.7056C13.7087 27.8926 13.9634 27.9971 14.2287 27.9963C14.494 27.9954 14.748 27.8892 14.935 27.7011V27.7051ZM20.135 27.5191C20.7416 26.5112 21.2467 25.4457 21.643 24.3381C21.7258 24.0904 21.7085 23.8201 21.5946 23.585C21.4808 23.3499 21.2794 23.1687 21.0337 23.0802C20.788 22.9916 20.5174 23.0027 20.2797 23.111C20.0421 23.2194 19.8562 23.4165 19.762 23.6601C19.4099 24.6421 18.9617 25.5871 18.424 26.4811C18.3558 26.5934 18.3105 26.7181 18.2905 26.848C18.2705 26.9778 18.2763 27.1104 18.3076 27.238C18.3388 27.3657 18.3949 27.4859 18.4726 27.5918C18.5503 27.6978 18.6482 27.7874 18.7605 27.8556C18.9874 27.9932 19.2597 28.0351 19.5174 27.972C19.6451 27.9407 19.7653 27.8847 19.8713 27.807C19.9772 27.7292 20.0668 27.6314 20.135 27.5191ZM22.5 21.1901C22.8705 19.148 23.038 17.0742 23 14.9991C22.9991 13.5824 22.5683 12.1993 21.7646 11.0326C20.9609 9.86597 19.8221 8.97062 18.4987 8.46492C17.1753 7.95921 15.7297 7.86695 14.3528 8.20033C12.9758 8.53371 11.7325 9.27704 10.787 10.3321C10.6949 10.4291 10.6232 10.5436 10.5762 10.6688C10.5291 10.794 10.5077 10.9273 10.5131 11.061C10.5185 11.1946 10.5507 11.3258 10.6077 11.4468C10.6647 11.5678 10.7454 11.6761 10.845 11.7654C10.9446 11.8546 11.0611 11.923 11.1876 11.9664C11.3141 12.0098 11.448 12.0274 11.5815 12.0181C11.7149 12.0089 11.8451 11.973 11.9644 11.9125C12.0837 11.852 12.1897 11.7682 12.276 11.6661C12.9513 10.9124 13.8394 10.3813 14.8229 10.143C15.8064 9.9048 16.8391 9.97062 17.7845 10.3318C18.7298 10.6929 19.5433 11.3325 20.1174 12.1658C20.6916 12.9992 20.9993 13.9871 21 14.9991C21.0369 16.9459 20.8821 18.8916 20.538 20.8081C20.4875 21.0682 20.5423 21.3378 20.6905 21.5576C20.8386 21.7773 21.0679 21.9293 21.328 21.9801C21.3915 21.9928 21.4562 21.9991 21.521 21.9991C21.7526 21.9985 21.9769 21.9175 22.1554 21.7699C22.334 21.6224 22.4558 21.4174 22.5 21.1901ZM11 14.9991C10.9997 14.72 11.0228 14.4413 11.069 14.1661C11.0989 14.0336 11.1014 13.8964 11.0765 13.7628C11.0516 13.6293 10.9997 13.5022 10.9241 13.3894C10.8485 13.2766 10.7506 13.1804 10.6366 13.1066C10.5225 13.0328 10.3946 12.9831 10.2607 12.9603C10.1268 12.9376 9.98963 12.9424 9.85763 12.9745C9.72563 13.0065 9.60154 13.0651 9.49293 13.1467C9.38431 13.2282 9.29346 13.3311 9.2259 13.4489C9.15835 13.5668 9.11551 13.6971 9.1 13.8321C9.03399 14.2176 9.00054 14.608 9 14.9991C9 19.6441 7.654 21.9991 5 21.9991C4.73478 21.9991 4.48043 22.1044 4.29289 22.292C4.10536 22.4795 4 22.7339 4 22.9991C4 23.2643 4.10536 23.5186 4.29289 23.7062C4.48043 23.8937 4.73478 23.9991 5 23.9991C8.869 23.9991 11 20.7991 11 14.9991ZM24.7 27.4131C26.3457 23.4872 27.13 19.2539 27 14.9991C27.0046 13.338 26.6283 11.698 25.9 10.2051C25.8425 10.0869 25.7624 9.98117 25.6641 9.89396C25.5658 9.80676 25.4512 9.73977 25.327 9.69682C25.2028 9.65387 25.0714 9.63581 24.9402 9.64366C24.809 9.65151 24.6807 9.68512 24.5625 9.74257C24.4443 9.80003 24.3386 9.8802 24.2514 9.97851C24.1642 10.0768 24.0972 10.1913 24.0542 10.3155C24.0113 10.4397 23.9932 10.5712 24.0011 10.7024C24.0089 10.8335 24.0425 10.9619 24.1 11.0801C24.695 12.3006 25.0029 13.6412 25 14.9991C25.1259 18.9678 24.4035 22.9178 22.881 26.5851C22.8268 26.7048 22.7967 26.8341 22.7925 26.9655C22.7883 27.0968 22.8101 27.2278 22.8565 27.3507C22.9029 27.4737 22.9732 27.5863 23.0632 27.6821C23.1532 27.7779 23.2612 27.8551 23.381 27.9091C23.5105 27.9686 23.6514 27.9993 23.794 27.9991C23.9852 27.9983 24.1722 27.9426 24.3328 27.8388C24.4934 27.7349 24.6208 27.5872 24.7 27.4131ZM7 17.9991V14.9991C7.00265 12.6129 7.95171 10.3253 9.63896 8.63804C11.3262 6.95078 13.6139 6.00172 16 5.99907C17.9484 5.99258 19.8452 6.62485 21.4 7.79907C21.6122 7.9582 21.8789 8.02653 22.1414 7.98902C22.404 7.95152 22.6409 7.81125 22.8 7.59907C22.9591 7.3869 23.0275 7.1202 22.99 6.85765C22.9524 6.5951 22.8122 6.3582 22.6 6.19907C20.6994 4.7645 18.3812 3.99179 16 3.99907C13.0837 4.00251 10.2878 5.16255 8.22563 7.2247C6.16347 9.28686 5.00344 12.0828 5 14.9991V17.9991C5 18.2643 5.10536 18.5186 5.29289 18.7062C5.48043 18.8937 5.73478 18.9991 6 18.9991C6.26522 18.9991 6.51957 18.8937 6.70711 18.7062C6.89464 18.5186 7 18.2643 7 17.9991Z" fill="white"/>
  </g>
  <defs>
    <clipPath id="clip0_101_3621">
      <rect width="24" height="24" fill="white" transform="translate(4 4)"/>
    </clipPath>
  </defs>
</svg>
