<svg width="20" height="20" viewBox="0 0 20 20" fill="none" xmlns="http://www.w3.org/2000/svg">
  <g clip-path="url(#clip0_102_1835)">
    <path d="M0 2.5V9.16667H9.16667V0H2.5C1.83696 0 1.20107 0.263392 0.732233 0.732233C0.263392 1.20107 0 1.83696 0 2.5H0ZM7.5 7.5H1.66667V2.5C1.66667 2.27899 1.75446 2.06702 1.91074 1.91074C2.06702 1.75446 2.27899 1.66667 2.5 1.66667H7.5V7.5Z" fill="white"/>
    <path d="M0 17.4999C0 18.1629 0.263392 18.7988 0.732233 19.2677C1.20107 19.7365 1.83696 19.9999 2.5 19.9999H9.16667V10.8333H0V17.4999ZM1.66667 12.4999H7.5V18.3332H2.5C2.27899 18.3332 2.06702 18.2454 1.91074 18.0892C1.75446 17.9329 1.66667 17.7209 1.66667 17.4999V12.4999Z" fill="white"/>
    <path d="M16.6666 17.8475V2.15498L18.8199 4.30498L19.9999 3.12582L17.6007 0.729985C17.132 0.262071 16.4968 -0.000732422 15.8345 -0.000732422C15.1722 -0.000732422 14.5369 0.262071 14.0682 0.729985L11.6724 3.12165L12.8499 4.30082L14.9999 2.15165V17.8466L12.8457 15.695L11.6682 16.8741L14.0674 19.27C14.5361 19.7379 15.1713 20.0007 15.8336 20.0007C16.4959 20.0007 17.1312 19.7379 17.5999 19.27L19.9999 16.8783L18.8224 15.6992L16.6666 17.8475Z" fill="white"/>
  </g>
  <defs>
    <clipPath id="clip0_102_1835">
      <rect width="20" height="20" fill="white"/>
    </clipPath>
  </defs>
</svg>
