<svg width="24" height="24" viewBox="0 0 24 24" fill="none" xmlns="http://www.w3.org/2000/svg">
<path d="M12.02 20.53C9.68999 20.53 7.35999 20.16 5.14999 19.42C4.30999 19.13 3.66999 18.54 3.38999 17.77C3.09999 17 3.19999 16.15 3.65999 15.39L4.80999 13.48C5.04999 13.08 5.26999 12.28 5.26999 11.81V8.92C5.26999 5.2 8.29999 2.17 12.02 2.17C15.74 2.17 18.77 5.2 18.77 8.92V11.81C18.77 12.27 18.99 13.08 19.23 13.49L20.37 15.39C20.8 16.11 20.88 16.98 20.59 17.77C20.3 18.56 19.67 19.16 18.88 19.42C16.68 20.16 14.35 20.53 12.02 20.53ZM12.02 3.67C9.12999 3.67 6.76999 6.02 6.76999 8.92V11.81C6.76999 12.54 6.46999 13.62 6.09999 14.25L4.94999 16.16C4.72999 16.53 4.66999 16.92 4.79999 17.25C4.91999 17.59 5.21999 17.85 5.62999 17.99C9.80999 19.39 14.24 19.39 18.42 17.99C18.78 17.87 19.06 17.6 19.19 17.24C19.32 16.88 19.29 16.49 19.09 16.16L17.94 14.25C17.56 13.6 17.27 12.53 17.27 11.8V8.92C17.27 6.02 14.92 3.67 12.02 3.67Z" fill="#7E8491"/>
<path d="M13.88 3.94C13.81 3.94 13.74 3.93 13.67 3.91C13.38 3.83 13.1 3.77 12.83 3.73C11.98 3.62 11.16 3.68 10.39 3.91C10.11 4 9.80999 3.91 9.61999 3.7C9.42999 3.49 9.36999 3.19 9.47999 2.92C9.88999 1.87 10.89 1.18 12.03 1.18C13.17 1.18 14.17 1.86 14.58 2.92C14.68 3.19 14.63 3.49 14.44 3.7C14.29 3.86 14.08 3.94 13.88 3.94Z" fill="#7E8491"/>
<path d="M12.02 22.81C11.03 22.81 10.07 22.41 9.36999 21.71C8.66999 21.01 8.26999 20.05 8.26999 19.06H9.76999C9.76999 19.65 10.01 20.23 10.43 20.65C10.85 21.07 11.43 21.31 12.02 21.31C13.26 21.31 14.27 20.3 14.27 19.06H15.77C15.77 21.13 14.09 22.81 12.02 22.81Z" fill="#7E8491"/>
</svg>
