<svg width="24" height="24" viewBox="0 0 24 24" fill="none" xmlns="http://www.w3.org/2000/svg">
<path d="M20 9.07001H4C3.59 9.07001 3.25 8.73001 3.25 8.32001V4C3.25 2.48 4.48 1.25 6 1.25H18C19.52 1.25 20.75 2.48 20.75 4V8.32001C20.75 8.73001 20.41 9.07001 20 9.07001ZM4.75 7.57001H19.25V4C19.25 3.31 18.69 2.75 18 2.75H6C5.31 2.75 4.75 3.31 4.75 4V7.57001Z" fill="#7E8491"/>
<path d="M12.5002 22.75H11.5002C9.98024 22.75 8.75024 21.52 8.75024 20V17.9C8.75024 17.45 8.51023 17.03 8.11023 16.81L5.15027 15.14C3.97027 14.48 3.24023 13.23 3.24023 11.87V8.31C3.24023 7.9 3.58023 7.56 3.99023 7.56H19.9902C20.4002 7.56 20.7402 7.9 20.7402 8.31V11.87C20.7402 13.22 20.0103 14.47 18.8303 15.14L15.8702 16.81C15.4802 17.03 15.2302 17.45 15.2302 17.9V20C15.2502 21.52 14.0202 22.75 12.5002 22.75ZM4.75024 9.07001V11.88C4.75024 12.69 5.19026 13.44 5.89026 13.84L8.85022 15.51C9.71022 16 10.2502 16.91 10.2502 17.9V20C10.2502 20.69 10.8102 21.25 11.5002 21.25H12.5002C13.1902 21.25 13.7502 20.69 13.7502 20V17.9C13.7502 16.91 14.2903 15.99 15.1503 15.51L18.1102 13.84C18.8202 13.44 19.2502 12.69 19.2502 11.88V9.07001H4.75024Z" fill="#7E8491"/>
</svg>
