<svg width="24" height="24" viewBox="0 0 24 24" fill="none" xmlns="http://www.w3.org/2000/svg">
<path d="M8 22.3199C7.72 22.3199 7.42998 22.2499 7.16998 22.1099C6.59998 21.8099 6.25 21.2099 6.25 20.5699V19.15C3.23 18.84 1.25 16.6199 1.25 13.4399V7.43994C1.25 3.99994 3.56 1.68994 7 1.68994H17C20.44 1.68994 22.75 3.99994 22.75 7.43994V13.4399C22.75 16.8799 20.44 19.1899 17 19.1899H13.23L8.96997 22.03C8.67997 22.22 8.34 22.3199 8 22.3199ZM7 3.17993C4.42 3.17993 2.75 4.84993 2.75 7.42993V13.43C2.75 16.01 4.42 17.68 7 17.68C7.41 17.68 7.75 18.02 7.75 18.43V20.56C7.75 20.69 7.83 20.75 7.88 20.78C7.93001 20.81 8.03001 20.84 8.14001 20.77L12.59 17.81C12.71 17.73 12.86 17.68 13.01 17.68H17.01C19.59 17.68 21.26 16.01 21.26 13.43V7.42993C21.26 4.84993 19.59 3.17993 17.01 3.17993H7Z" fill="#7E8491"/>
<path d="M11.9998 12.11C11.5898 12.11 11.2498 11.77 11.2498 11.36V11.15C11.2498 9.99002 12.0998 9.42001 12.4198 9.20001C12.7898 8.95001 12.9098 8.78002 12.9098 8.52002C12.9098 8.02002 12.4998 7.60999 11.9998 7.60999C11.4998 7.60999 11.0898 8.02002 11.0898 8.52002C11.0898 8.93002 10.7498 9.27002 10.3398 9.27002C9.92984 9.27002 9.58984 8.93002 9.58984 8.52002C9.58984 7.19002 10.6698 6.10999 11.9998 6.10999C13.3298 6.10999 14.4098 7.19002 14.4098 8.52002C14.4098 9.66002 13.5698 10.23 13.2598 10.44C12.8698 10.7 12.7498 10.87 12.7498 11.15V11.36C12.7498 11.78 12.4098 12.11 11.9998 12.11Z" fill="#7E8491"/>
<path d="M12 14.6C11.58 14.6 11.25 14.26 11.25 13.85C11.25 13.44 11.59 13.1 12 13.1C12.41 13.1 12.75 13.44 12.75 13.85C12.75 14.26 12.42 14.6 12 14.6Z" fill="#7E8491"/>
</svg>
