<svg width="24" height="24" viewBox="0 0 24 24" fill="none" xmlns="http://www.w3.org/2000/svg">
<path d="M16.6999 19.73H7.29994C6.55994 19.73 5.80994 19.2 5.55994 18.51L1.41993 6.92001C0.909935 5.46001 1.27993 4.79001 1.67993 4.49001C2.07993 4.19001 2.82994 4.01001 4.08994 4.91001L7.98993 7.70001C8.10993 7.77001 8.21994 7.80001 8.29994 7.78001C8.38994 7.75001 8.45994 7.67001 8.50994 7.53001L10.2699 2.84001C10.7999 1.44001 11.5799 1.23001 11.9999 1.23001C12.4199 1.23001 13.1999 1.44001 13.7299 2.84001L15.4899 7.53001C15.5399 7.66001 15.6099 7.75001 15.6999 7.78001C15.7899 7.81001 15.8999 7.78001 16.0099 7.69001L19.6699 5.08001C21.0099 4.12001 21.7899 4.31001 22.2199 4.62001C22.6399 4.94001 23.0299 5.65001 22.4799 7.20001L18.4399 18.51C18.1899 19.2 17.4399 19.73 16.6999 19.73ZM2.67994 5.81001C2.69994 5.95001 2.73993 6.15001 2.83993 6.41001L6.97994 18C7.01994 18.1 7.19994 18.23 7.29994 18.23H16.6999C16.8099 18.23 16.9899 18.1 17.0199 18L21.0599 6.70001C21.1999 6.32001 21.2399 6.06001 21.2499 5.91001C21.0999 5.96001 20.8699 6.07001 20.5399 6.31001L16.8799 8.92001C16.3799 9.27001 15.7899 9.38001 15.2599 9.22001C14.7299 9.06001 14.2999 8.64001 14.0799 8.07001L12.3199 3.38001C12.1899 3.03001 12.0699 2.86001 11.9999 2.78001C11.9299 2.86001 11.8099 3.03001 11.6799 3.37001L9.91994 8.06001C9.70994 8.63001 9.27993 9.05001 8.73993 9.21001C8.20994 9.37001 7.60993 9.26001 7.11994 8.91001L3.21994 6.12001C2.98994 5.96001 2.80994 5.86001 2.67994 5.81001Z" fill="#F4AF25"/>
<path d="M17.5 22.75H6.5C6.09 22.75 5.75 22.41 5.75 22C5.75 21.59 6.09 21.25 6.5 21.25H17.5C17.91 21.25 18.25 21.59 18.25 22C18.25 22.41 17.91 22.75 17.5 22.75Z" fill="#F4AF25"/>
<path d="M14.5 14.75H9.5C9.09 14.75 8.75 14.41 8.75 14C8.75 13.59 9.09 13.25 9.5 13.25H14.5C14.91 13.25 15.25 13.59 15.25 14C15.25 14.41 14.91 14.75 14.5 14.75Z" fill="#F4AF25"/>
</svg>
