<svg width="24" height="24" viewBox="0 0 24 24" fill="none" xmlns="http://www.w3.org/2000/svg">
<path d="M18.32 12.75H15C12.51 12.75 11.25 11.34 11.25 8.54999V5.67999C11.25 4.65999 11.37 3.19999 12.43 2.39999C13.32 1.73999 14.6 1.68999 16.49 2.23999C18.97 2.95999 21.04 5.02999 21.76 7.50999C22.31 9.38999 22.26 10.68 21.6 11.56C20.8 12.63 19.34 12.75 18.32 12.75ZM14.28 3.35999C13.87 3.35999 13.55 3.43999 13.34 3.59999C12.95 3.88999 12.76 4.56999 12.76 5.67999V8.55999C12.76 10.8 13.62 11.26 15.01 11.26H18.33C19.43 11.26 20.11 11.07 20.41 10.68C20.76 10.22 20.73 9.29999 20.34 7.94999C19.76 5.97999 18.06 4.26999 16.09 3.69999C15.35 3.46999 14.75 3.35999 14.28 3.35999Z" fill="#7E8491"/>
<path d="M11.07 22.75C10.54 22.75 10 22.71 9.46 22.62C5.37 21.96 2.04 18.64 1.38 14.55C0.530005 9.28998 3.92 4.32999 9.11 3.26999C9.52 3.18999 9.91 3.44999 10 3.84999C10.08 4.25999 9.82 4.64998 9.42 4.73998C5.03 5.63999 2.15 9.83999 2.88 14.31C3.44 17.77 6.25 20.58 9.71 21.14C14.2 21.86 18.39 18.97 19.28 14.56C19.36 14.15 19.76 13.89 20.16 13.97C20.57 14.05 20.83 14.45 20.75 14.85C19.8 19.52 15.72 22.75 11.07 22.75Z" fill="#7E8491"/>
</svg>
