<?xml version="1.0" encoding="UTF-8" standalone="no"?>
<svg width="72" height="77" viewBox="0 0 72 77" fill="none" xmlns="http://www.w3.org/2000/svg">
  <g clip-path="url(#clip0_66_2516)">
    <path d="M35.8652 76.7876C26.3531 76.7876 17.2307 72.9635 10.5047 66.1566C3.77864 59.3496 0 50.1174 0 40.4909H71.7303C71.7303 50.1174 67.9517 59.3496 61.2257 66.1566C54.4997 72.9635 45.3772 76.7876 35.8652 76.7876V76.7876Z" fill="#5E00F5"/>
    <path d="M67.8041 36.29C67.6834 27.7971 64.2649 19.6933 58.2877 13.7306C52.3105 7.76787 44.2548 4.42522 35.8619 4.42522C27.469 4.42522 19.4132 7.76787 13.436 13.7306C7.45882 19.6933 4.04038 27.7971 3.91965 36.29H0C0 26.6636 3.77864 17.4314 10.5047 10.6244C17.2307 3.81748 26.3531 -0.00662613 35.8652 -0.00662613C45.3772 -0.00662613 54.4997 3.81748 61.2257 10.6244C67.9517 17.4314 71.7303 26.6636 71.7303 36.29H67.8041Z" fill="#FF7966"/>
    <path d="M35.8653 9.08427C42.9934 9.09135 49.8276 11.9597 54.8686 17.0601C59.9095 22.1604 62.7455 29.0762 62.7543 36.29H58.828C58.7258 30.1941 56.2612 24.3828 51.9654 20.1084C47.6695 15.834 41.8863 13.4387 35.862 13.4387C29.8376 13.4387 24.0544 15.834 19.7586 20.1084C15.4627 24.3828 12.9982 30.1941 12.896 36.29H8.97632C8.98507 29.0762 11.821 22.1604 16.862 17.0601C21.9029 11.9597 28.7372 9.09135 35.8653 9.08427Z" fill="#FFD2CC"/>
  </g>
  <defs>
    <clipPath id="clip0_66_2516">
      <rect width="71.7303" height="76.7876" fill="white" transform="matrix(1 0 0 -1 0 76.7876)"/>
    </clipPath>
  </defs>
</svg>
