<?xml version="1.0" encoding="UTF-8" standalone="no"?>
<svg width="456" height="77" viewBox="0 0 456 77" fill="none" xmlns="http://www.w3.org/2000/svg">
  <g clip-path="url(#clip0_66_2522)">
    <path d="M35.8652 76.7876C26.3531 76.7876 17.2307 72.9635 10.5047 66.1566C3.77864 59.3496 0 50.1174 0 40.4909H71.7303C71.7303 50.1174 67.9517 59.3496 61.2257 66.1566C54.4997 72.9635 45.3772 76.7876 35.8652 76.7876V76.7876Z" fill="#5E00F5"/>
    <path d="M67.8041 36.29C67.6834 27.7971 64.2649 19.6933 58.2877 13.7306C52.3105 7.76787 44.2548 4.42522 35.8619 4.42522C27.469 4.42522 19.4132 7.76787 13.436 13.7306C7.45882 19.6933 4.04038 27.7971 3.91965 36.29H0C0 26.6636 3.77864 17.4314 10.5047 10.6244C17.2307 3.81748 26.3531 -0.00662613 35.8652 -0.00662613C45.3772 -0.00662613 54.4997 3.81748 61.2257 10.6244C67.9517 17.4314 71.7303 26.6636 71.7303 36.29H67.8041Z" fill="#FF7966"/>
    <path d="M35.8653 9.08427C42.9934 9.09135 49.8276 11.9597 54.8686 17.0601C59.9095 22.1604 62.7455 29.0762 62.7543 36.29H58.828C58.7258 30.1941 56.2612 24.3828 51.9654 20.1084C47.6695 15.834 41.8863 13.4387 35.862 13.4387C29.8376 13.4387 24.0544 15.834 19.7586 20.1084C15.4627 24.3828 12.9982 30.1941 12.896 36.29H8.97632C8.98507 29.0762 11.821 22.1604 16.862 17.0601C21.9029 11.9597 28.7372 9.09135 35.8653 9.08427Z" fill="#FFD2CC"/>
  </g>
  <path d="M119.587 62.3289V22.6648H105.514V14.4584H142.768V22.6648H128.694V62.3289H119.587Z" fill="white"/>
  <path d="M149.017 62.3289V14.4584H169.99C173.026 14.4584 175.67 14.9827 177.924 16.0313C180.178 17.0799 181.925 18.5616 183.167 20.4764C184.409 22.3912 185.03 24.648 185.03 27.2467V28.0673C185.03 30.9395 184.34 33.2647 182.96 35.0427C181.58 36.8208 179.879 38.1201 177.855 38.9407V40.1717C179.695 40.2629 181.12 40.9012 182.132 42.0865C183.144 43.2263 183.65 44.7536 183.65 46.6684V62.3289H174.543V47.9678C174.543 46.8736 174.244 45.9845 173.647 45.3007C173.095 44.6168 172.152 44.2749 170.818 44.2749H158.124V62.3289H149.017ZM158.124 36.0685H169.024C171.186 36.0685 172.865 35.4986 174.06 34.3588C175.302 33.1735 175.923 31.6234 175.923 29.7086V29.0247C175.923 27.1099 175.325 25.5826 174.129 24.4428C172.934 23.2574 171.232 22.6648 169.024 22.6648H158.124V36.0685Z" fill="white"/>
  <path d="M189.344 62.3289L202.038 14.4584H217.905L230.599 62.3289H221.217L218.595 51.7974H201.348L198.726 62.3289H189.344ZM203.486 43.4542H216.456L210.592 20.1345H209.351L203.486 43.4542Z" fill="white"/>
  <path d="M254.375 63.2863C248.396 63.2863 243.658 61.645 240.163 58.3625C236.667 55.0344 234.92 50.2929 234.92 44.1381V32.6492C234.92 26.4944 236.667 21.7757 240.163 18.4932C243.658 15.165 248.396 13.501 254.375 13.501C260.308 13.501 264.884 15.1195 268.104 18.3564C271.369 21.5478 273.002 25.9473 273.002 31.555V31.9653H264.033V31.2815C264.033 28.4548 263.228 26.1297 261.619 24.306C260.055 22.4824 257.64 21.5706 254.375 21.5706C251.155 21.5706 248.626 22.5508 246.786 24.5112C244.946 26.4716 244.026 29.1387 244.026 32.5124V44.2749C244.026 47.603 244.946 50.2701 246.786 52.2761C248.626 54.2365 251.155 55.2167 254.375 55.2167C257.64 55.2167 260.055 54.3049 261.619 52.4813C263.228 50.612 264.033 48.2869 264.033 45.5058V44.2749H273.002V45.2323C273.002 50.84 271.369 55.2623 268.104 58.4993C264.884 61.6906 260.308 63.2863 254.375 63.2863Z" fill="white"/>
  <path d="M280.47 62.3289V14.4584H289.576V33.4698H290.818L306.479 14.4584H318.138L297.993 38.0517L318.828 62.3289H306.824L290.818 42.9072H289.576V62.3289H280.47Z" fill="white"/>
  <path d="M323.703 62.3289V14.4584H332.81V62.3289H323.703Z" fill="white"/>
  <path d="M340.562 62.3289V50.84L364.432 23.6222V22.528H341.252V14.4584H373.953V25.9473L350.083 53.1651V54.2593H374.091V62.3289H340.562Z" fill="white"/>
  <path d="M381.74 62.3289V14.4584H412.785V22.6648H390.846V34.0853H410.853V42.2917H390.846V54.1225H413.199V62.3289H381.74Z" fill="white"/>
  <path d="M419.988 62.3289V14.4584H440.96C443.996 14.4584 446.64 14.9827 448.894 16.0313C451.148 17.0799 452.896 18.5616 454.137 20.4764C455.379 22.3912 456 24.648 456 27.2467V28.0673C456 30.9395 455.31 33.2647 453.93 35.0427C452.551 36.8208 450.849 38.1201 448.825 38.9407V40.1717C450.665 40.2629 452.091 40.9012 453.102 42.0865C454.114 43.2263 454.62 44.7536 454.62 46.6684V62.3289H445.514V47.9678C445.514 46.8736 445.215 45.9845 444.617 45.3007C444.065 44.6168 443.122 44.2749 441.788 44.2749H429.094V62.3289H419.988ZM429.094 36.0685H439.994C442.156 36.0685 443.835 35.4986 445.031 34.3588C446.273 33.1735 446.893 31.6234 446.893 29.7086V29.0247C446.893 27.1099 446.296 25.5826 445.1 24.4428C443.904 23.2574 442.202 22.6648 439.994 22.6648H429.094V36.0685Z" fill="white"/>
  <defs>
    <clipPath id="clip0_66_2522">
      <rect width="71.7303" height="76.7876" fill="white" transform="matrix(1 0 0 -1 0 76.7876)"/>
    </clipPath>
  </defs>
</svg>
